<?xml version="1.0" standalone="no"?><!DOCTYPE svg PUBLIC "-//W3C//DTD SVG 1.1//EN" "http://www.w3.org/Graphics/SVG/1.1/DTD/svg11.dtd"><svg t="1773997721378" class="icon" viewBox="0 0 1024 1024" version="1.1" xmlns="http://www.w3.org/2000/svg" p-id="5136" xmlns:xlink="http://www.w3.org/1999/xlink" width="200" height="200"><path d="M314.181818 775.517091A32.814545 32.814545 0 0 1 302.545455 768L62.999273 528.453818a23.272727 23.272727 0 0 1 0-32.907636L302.545455 256a32.814545 32.814545 0 0 1 11.636363-7.517091A46.429091 46.429091 0 0 1 349.090909 232.727273h442.181818a93.090909 93.090909 0 0 1 93.090909 93.090909v372.363636a93.090909 93.090909 0 0 1-93.090909 93.090909H349.090909a46.429091 46.429091 0 0 1-34.909091-15.755636zM349.090909 302.545455l-209.454545 209.454545 209.454545 209.454545h418.909091a46.545455 46.545455 0 0 0 46.545455-46.545454V349.090909a46.545455 46.545455 0 0 0-46.545455-46.545454H349.090909z m232.727273 209.454545l69.818182 69.818182a32.907636 32.907636 0 0 1-46.545455 46.545454l-69.818182-69.818181-69.818182 69.818181a32.907636 32.907636 0 0 1-46.545454-46.545454l69.818182-69.818182-69.818182-69.818182a32.907636 32.907636 0 0 1 46.545454-46.545454l69.818182 69.818181 69.818182-69.818181a32.907636 32.907636 0 0 1 46.545455 46.545454l-69.818182 69.818182z" fill="#ffffff" p-id="5137"></path></svg>